<svg width="52" height="52" viewBox="0 0 52 52" fill="none" xmlns="http://www.w3.org/2000/svg">
<path fill-rule="evenodd" clip-rule="evenodd" d="M17.8937 34.9247L19.9351 32.8834C20.0135 32.7987 20.0972 32.712 20.186 32.6231L32.5357 20.2735C33.2202 19.5889 33.7728 19.2227 34.1933 19.1748C34.6138 19.1268 35.0848 19.3637 35.6064 19.8853C36.7986 21.0775 37.3147 22.3683 37.1548 23.7577C37.0135 25.1657 36.2312 26.5814 34.808 28.0046C33.3848 29.4278 31.9971 30.238 30.6449 30.4352C29.3114 30.651 28.2162 30.3305 27.3593 29.4736C27.0054 29.1196 26.7248 28.7669 26.5174 28.4154C26.4981 28.3602 26.4429 28.3409 26.3516 28.3577C26.2789 28.3931 26.2155 28.4378 26.1615 28.4919C26.0714 28.582 26.045 28.6456 26.0823 28.6829C26.3648 29.1455 26.7575 29.6283 27.2604 30.1313C28.2477 31.1186 29.4053 31.8798 30.733 32.4149C32.0794 32.9686 33.438 33.1562 34.8087 32.9776C36.1795 32.799 37.4234 32.1513 38.5404 31.0343C40.1437 29.431 40.7742 27.7014 40.4318 25.8457C40.1074 23.9719 38.9951 22.085 37.095 20.1849C36.7431 19.833 36.416 19.5153 36.1135 19.2319L26.2576 9.37598L9.30127 26.3323L17.8937 34.9247ZM13.6684 29.6471C13.7925 29.8892 14.0039 30.18 14.3026 30.5194C14.3903 30.5765 14.4722 30.6235 14.5483 30.6605C14.9178 30.8499 15.2752 30.865 15.6206 30.706C15.984 30.5288 16.4359 30.1701 16.9763 29.6296L29.4881 17.1179C30.0285 16.5774 30.3783 16.1345 30.5374 15.7891C30.6965 15.4438 30.6814 15.0863 30.492 14.7168C30.3871 14.4795 30.206 14.2066 29.9488 13.898C29.8399 13.8298 29.737 13.7742 29.6401 13.7313C29.2525 13.56 28.8771 13.5629 28.5137 13.74C28.1684 13.899 27.7255 14.2488 27.185 14.7893L14.7273 27.2469C14.1688 27.8054 13.81 28.2574 13.651 28.6027C13.4919 28.9481 13.4977 29.2962 13.6684 29.6471Z" fill="#161616"/>
<rect x="2.93724" y="26.333" width="33" height="33" transform="rotate(-45 2.93724 26.333)" stroke="black" stroke-width="3"/>
</svg>
